mtllib materials.mtl
v 0 -0.05500019 0.12
v 0.06 -0.05500019 0.103923
v 0.06 -0.07500017 0.103923
v 0 -0.07500017 0.12
v 0.1039231 -0.05500019 0.06
v 0.1039231 -0.07500017 0.06
v 0.12 -0.05500019 0
v 0.12 -0.07500017 0
v 0.1039231 -0.05500019 -0.06
v 0.1039231 -0.07500017 -0.06
v 0.06 -0.05500019 -0.103923
v 0.06 -0.07500017 -0.103923
v -1.490116E-08 -0.05500019 -0.12
v -1.490116E-08 -0.07500017 -0.12
v -0.06000002 -0.05500019 -0.103923
v -0.06000002 -0.07500017 -0.103923
v -0.1039231 -0.05500019 -0.06
v -0.1039231 -0.07500017 -0.06
v -0.12 -0.05500019 0
v -0.12 -0.07500017 0
v -0.1039231 -0.05500019 0.06
v -0.1039231 -0.07500017 0.06
v -0.05999997 -0.05500019 0.1039231
v -0.05999997 -0.07500017 0.1039231
v -1.490116E-08 -0.04999995 0.06999999
v 0.03499998 -0.04999995 0.0606218
v 0.03499998 -0.07000005 0.0606218
v -1.490116E-08 -0.07000005 0.06999999
v 0.0606218 -0.04999995 0.03500003
v 0.0606218 -0.07000005 0.03500003
v 0.06999999 -0.04999995 0
v 0.06999999 -0.07000005 0
v 0.06062177 -0.04999995 -0.03500003
v 0.06062177 -0.07000005 -0.03500003
v 0.03500001 -0.04999995 -0.0606218
v 0.03500001 -0.07000005 -0.0606218
v 1.490116E-08 -0.04999995 -0.06999999
v 1.490116E-08 -0.07000005 -0.06999999
v -0.035 -0.04999995 -0.0606218
v -0.035 -0.07000005 -0.0606218
v -0.06062177 -0.04999995 -0.03499997
v -0.06062177 -0.07000005 -0.03499997
v -0.07 -0.04999995 0
v -0.07 -0.07000005 0
v -0.0606218 -0.04999995 0.03499997
v -0.0606218 -0.07000005 0.03499997
v -0.035 -0.04999995 0.0606218
v -0.035 -0.07000005 0.0606218
v -0.0486799 0.01250005 0.02946359
v -0.02946357 0.01250005 0.04868001
v -0.05688985 0.01250005 -0.001176178
v -0.04985616 0.01250005 -0.02742618
v -0.02742624 0.01250005 -0.04985613
v -0.001176238 0.01250005 -0.05688977
v 0.02946357 0.01250005 -0.04867989
v 0.04867989 0.01250005 -0.02946353
v 0.0568898 0.01250005 0.001176298
v 0.04985614 0.01250005 0.0274263
v 0.02742621 0.01250005 0.04985625
v 0.001176223 0.01250005 0.05688989
v -0.01285429 0.2 0.01285458
v -0.01755928 0.2 -0.004704714
v -0.004705012 0.2 -0.01755899
v 0.01285423 0.2 -0.01285404
v 0.01755925 0.2 0.004705191
v 0.004704952 0.2 0.01755953
v 0.02392712 0.07500005 -0.03673792
v -0.002352506 0.07500005 -0.04377949
v -0.01985249 0.07500005 -0.03909039
v -0.03909051 0.07500005 -0.01985234
v -0.04377966 0.07500005 -0.002352357
v -0.03673804 0.07500005 0.02392727
v -0.02392714 0.07500005 0.03673816
v 0.002352461 0.07500005 0.04377979
v 0.01985246 0.07500005 0.03909063
v 0.03909051 0.07500005 0.01985258
v 0.04377961 0.07500005 0.002352595
v 0.03673801 0.07500005 -0.02392703
vn 0.2588193 1.005928E-06 0.9659258
vn 0.7071064 -1.458898E-07 0.7071072
vn 0.9659258 -3.940086E-07 0.258819
vn 0.9659258 -6.679938E-07 -0.258819
vn 0.7071064 8.27512E-07 -0.7071072
vn 0.2588195 -2.829505E-07 -0.9659257
vn -0.2588195 3.803975E-07 -0.9659257
vn -0.7071066 -5.101091E-07 -0.707107
vn -0.9659259 4.177866E-07 -0.2588189
vn -0.9659259 -2.77018E-07 0.2588189
vn -0.7071068 -5.389414E-07 0.7071067
vn -0.2588187 -3.660615E-07 0.9659259
vn 0 1 0
vn 0 -1 0
vn 0.2588181 -5.844975E-07 0.9659261
vn 0.7071063 -8.166463E-07 0.7071073
vn 0.965926 5.111006E-08 0.2588183
vn 0.9659259 4.69942E-08 -0.2588188
vn 0.7071069 -8.606414E-08 -0.7071066
vn 0.2588187 2.819095E-07 -0.9659259
vn -0.2588181 -4.144106E-07 -0.9659261
vn -0.7071075 6.090495E-07 -0.7071062
vn -0.9659258 2.2425E-08 -0.2588193
vn -0.9659259 -4.734802E-08 0.258819
vn -0.7071073 -1.805291E-07 0.7071063
vn -0.2588187 -2.100241E-08 0.9659259
vn -0.6936752 0.1939872 0.6936741
vn 3.057097E-14 -1 -1.748456E-07
vn -0.9457822 0.2031591 0.2534212
vn -0.9475769 0.1939883 -0.2539027
vn -0.692361 0.2031601 -0.6923599
vn -0.2539015 0.1939891 -0.9475771
vn 0.2534207 0.2031603 -0.9457822
vn 0.6936745 0.1939888 -0.6936743
vn 0.945782 0.2031597 -0.2534217
vn 0.9475772 0.193988 0.2539019
vn 0.6923606 0.203159 0.6923606
vn 0.2539017 0.1939873 0.9475774
vn -0.2534209 0.2031584 0.9457825
vn -3.057097E-14 1 1.748456E-07
vn 0.2534207 0.2031603 -0.9457822
vn -0.2539015 0.1939891 -0.9475771
vn -0.692361 0.2031601 -0.6923599
vn -0.9475769 0.1939883 -0.2539027
vn -0.9457822 0.2031591 0.2534212
vn -0.6936752 0.1939872 0.6936741
vn -0.2534209 0.2031584 0.9457825
vn 0.2539017 0.1939873 0.9475774
vn 0.6923606 0.203159 0.6923606
vn 0.9475772 0.193988 0.2539019
vn 0.945782 0.2031597 -0.2534217
vn 0.6936745 0.1939888 -0.6936743
vn 0.6936745 0.1939888 -0.6936743
vn 0.2534207 0.2031603 -0.9457822
vn -0.2539015 0.1939891 -0.9475771
vn -0.692361 0.2031601 -0.6923599
vn -0.9475769 0.1939883 -0.2539027
vn -0.9457822 0.2031591 0.2534212
vn -0.6936752 0.1939872 0.6936741
vn -0.2534209 0.2031584 0.9457825
vn 0.2539017 0.1939873 0.9475774
vn 0.6923606 0.203159 0.6923606
vn 0.9475772 0.193988 0.2539019
vn 0.945782 0.2031597 -0.2534217
usemtl mat13
f 4//1 3//1 2//1 1//1
f 3//2 6//2 5//2 2//2
f 6//3 8//3 7//3 5//3
f 8//4 10//4 9//4 7//4
f 10//5 12//5 11//5 9//5
f 12//6 14//6 13//6 11//6
f 14//7 16//7 15//7 13//7
f 16//8 18//8 17//8 15//8
f 18//9 20//9 19//9 17//9
f 20//10 22//10 21//10 19//10
f 22//11 24//11 23//11 21//11
f 24//12 4//12 1//12 23//12
f 1//13 2//13 5//13 7//13 9//13 11//13 13//13 15//13 17//13 19//13 21//13 23//13
f 24//14 22//14 20//14 18//14 16//14 14//14 12//14 10//14 8//14 6//14 3//14 4//14
f 28//15 27//15 26//15 25//15
f 27//16 30//16 29//16 26//16
f 30//17 32//17 31//17 29//17
f 32//18 34//18 33//18 31//18
f 34//19 36//19 35//19 33//19
f 36//20 38//20 37//20 35//20
f 38//21 40//21 39//21 37//21
f 40//22 42//22 41//22 39//22
f 42//23 44//23 43//23 41//23
f 44//24 46//24 45//24 43//24
f 46//25 48//25 47//25 45//25
f 48//26 28//26 25//26 47//26
f 50//27 49//27 45//27 47//27
f 48//28 46//28 44//28 42//28 40//28 38//28 36//28 34//28 32//28 30//28 27//28 28//28
f 49//29 51//29 43//29 45//29
f 51//30 52//30 41//30 43//30
f 52//31 53//31 39//31 41//31
f 53//32 54//32 37//32 39//32
f 54//33 55//33 35//33 37//33
f 55//34 56//34 33//34 35//34
f 56//35 57//35 31//35 33//35
f 57//36 58//36 29//36 31//36
f 58//37 59//37 26//37 29//37
f 59//38 60//38 25//38 26//38
f 60//39 50//39 47//39 25//39
f 66//40 65//40 64//40 63//40 62//40 61//40
f 68//41 63//41 64//41 67//41
f 69//42 63//42 68//42
f 70//43 62//43 63//43 69//43
f 71//44 62//44 70//44
f 72//45 61//45 62//45 71//45
f 73//46 61//46 72//46
f 74//47 66//47 61//47 73//47
f 75//48 66//48 74//48
f 76//49 65//49 66//49 75//49
f 77//50 65//50 76//50
f 78//51 64//51 65//51 77//51
f 67//52 64//52 78//52
usemtl mat21
f 55//53 67//53 78//53 56//53
f 54//54 68//54 67//54 55//54
f 53//55 69//55 68//55 54//55
f 52//56 70//56 69//56 53//56
f 51//57 71//57 70//57 52//57
f 49//58 72//58 71//58 51//58
f 50//59 73//59 72//59 49//59
f 60//60 74//60 73//60 50//60
f 59//61 75//61 74//61 60//61
f 58//62 76//62 75//62 59//62
f 57//63 77//63 76//63 58//63
f 56//64 78//64 77//64 57//64
