<svg width="113" height="29" xmlns="http://www.w3.org/2000/svg"><path d="M14.698.724h14.196l3.025 27.157H20.593l-.132-4.363h-7.92l-2.05 4.363H0L14.698.724zm5.53 5.944l-4.615 10.23h4.668l.024-10.23h-.077zM46.25 18.181l1.15-5.39h14.216l-3.06 14.349c-4.515 1.1-9.638 1.828-14.148 1.828-9.936 0-13.5-6.042-11.712-14.432C34.487 6.147 40.627.11 50.87.11c8.484 0 12.326 2.772 11.073 9.187H51.699c.149-.873-.074-1.442-.46-1.784-.385-.34-1.003-.493-1.69-.493-1.644 0-2.892.835-3.662 1.936-.77 1.1-1.497 3.796-1.99 6.112-.568 2.657-.727 4.48-.416 5.352.406 1.14 1.371 1.633 2.785 1.633 1.032 0 2.058-.152 3.025-.57l.706-3.302H46.25zm14.478 10.06L66.574.832h10.93l-5.845 27.409H60.73zm30.532-12.585c10.209-1.166 15.595-.872 18.279-.444l-.633 2.813c-8.39-1.886-13.992-2.404-17.646-2.369zm-12.387 7.45c4.349.11 15.159.813 27.799 4.816l-.072.325h-2.604c-5.479-1.674-14.017-3.206-25.765-2.298l.642-2.842zm7.903-6.447c8.017-.204 19.042 2.877 21.618 3.633l-1.448 6.419c-2.977-2.092-8.943-5.597-20.17-10.052zm-6.453.015c3.35.59 9.418 2.303 19.382 7.096-4.76-1.757-11.431-3.362-20.175-3.58l.793-3.516zM83.915.76h28.887l-2.153 9.534c-9.316-.41-17.673 3.013-23.59 5.562-.457.13-.898.263-1.322.394a227.965 227.965 0 0 0-4.9-1.85L83.916.76zm6.753 14.153c14.031-4.203 18.56-3.122 19.562-3.078l-.306 1.677c-6.807-.832-13.704.1-19.256 1.401z" fill="#006A35" fill-rule="evenodd"/></svg>