<?xml version="1.0" encoding="utf-8"?>
<!-- Generator: Adobe Illustrator 24.1.0, SVG Export Plug-In . SVG Version: 6.00 Build 0)  -->
<svg version="1.1" id="Layer_1" xmlns="http://www.w3.org/2000/svg" xmlns:xlink="http://www.w3.org/1999/xlink" x="0px" y="0px"
	 viewBox="0 0 486 87.4" style="enable-background:new 0 0 486 87.4;" xml:space="preserve">
<style type="text/css">
	.st0{fill:#006A36;}
	.st1{fill-rule:evenodd;clip-rule:evenodd;fill:#006A36;}
</style>
<g>
	<path class="st0" d="M46.6,47.1l5.3-12H52v12H46.6z M28.6,60h12.1l2.4-5.1h9.2l0.2,5.1h13.1L62,28.1H45.5L28.6,60z"/>
	<path class="st0" d="M82.1,48.3h4.3l-0.8,3.8c-1.1,0.5-2.3,0.7-3.5,0.7c-1.6,0-2.8-0.6-3.2-1.9c-0.4-1-0.2-3.1,0.5-6.2
		c0.6-2.7,1.4-5.8,2.3-7.1s2.3-2.3,4.2-2.3c0.8,0,1.5,0.2,2,0.6c0.4,0.4,0.7,1.1,0.5,2.1h11.8c1.5-7.5-3-10.7-12.8-10.7
		c-11.8,0-19,7-21,16.8c-2.1,9.8,2.1,16.8,13.6,16.8c5.2,0,11.1-0.8,16.4-2.1L99.9,42H83.5L82.1,48.3z"/>
	<path class="st0" d="M98.9,60h12.6l6.8-31.9h-12.7L98.9,60z"/>
	<path class="st1" d="M134.2,45.3c4.2,0,10.7,0.6,20.4,2.8l0.7-3.3C152.2,44.3,146,44,134.2,45.3L134.2,45.3z"/>
	<path class="st1" d="M119.9,54l-0.7,3.3c13.6-1.1,23.5,0.7,29.8,2.7h3l0.1-0.4C137.4,55,124.9,54.1,119.9,54z"/>
	<path class="st1" d="M129,46.5c13,5.2,19.9,9.3,23.3,11.7l1.7-7.5C151,49.9,138.3,46.3,129,46.5z"/>
	<path class="st1" d="M121.5,46.5l-0.9,4.1c10.1,0.3,17.8,2.1,23.3,4.2C132.4,49.2,125.4,47.2,121.5,46.5z"/>
	<path class="st1" d="M125.7,28l-3.6,15.9c2,0.7,3.9,1.5,5.7,2.2c0.5-0.2,1-0.3,1.5-0.5c6.8-3,16.5-7,27.3-6.5l2.5-11.1L125.7,28z"
		/>
	<path class="st1" d="M133.5,44.5c6.4-1.5,14.4-2.6,22.3-1.6l0.4-2C155,40.8,149.7,39.6,133.5,44.5z"/>
</g>
<path d="M185.2,37.5c0.3-1.9-0.6-2.6-2.2-2.6c-2,0-3.1,0.9-3.2,1.8c-0.3,1.1,0.4,1.6,1.6,2c2.2,0.7,6.4,1.6,9.3,2.9
	c3.6,1.6,4.7,4.4,3.9,8.2c-1.6,7.6-8.5,10.8-17.3,10.8c-7.5,0-13.9-2.3-12.2-10.4h11.8c-0.2,0.9-0.2,1.7,0.2,2.4c0.3,0.6,1,1,2.2,1
	c1.8,0,3.2-1.2,3.5-2.5c0.3-1.2-0.5-1.8-1.6-2.1l-8.2-2.6c-4.5-1.4-5.6-4.3-4.7-8.3c1.3-6.5,7.4-10.1,16.4-10.1
	c7.8,0,13,2.4,11.5,9.6h-11V37.5z"/>
<path d="M227,49.3c-1.6,7.5-7.8,11.2-17.1,11.2s-14-3.7-12.4-11.2l4.4-20.7h12.3l-4.3,20.2c-0.5,2.5,0.4,3.4,1.7,3.4
	s2.7-0.9,3.2-3.4l4.3-20.2h12.3L227,49.3z"/>
<path d="M235,28.6h18.4c6.7,0,10.2,2,9,7.9c-0.8,3.6-2.8,6.3-7.8,7.4V44c2.9,0.3,4.3,1.6,4.4,4c0.1,2.7-0.9,7.1-0.5,11.8h-12.1
	c-0.3-2.3,0.2-6.2,0.3-8.9c0.1-1.6-0.6-2.2-2.5-2.2h-1.4l-2.4,11.1h-12.1L235,28.6z M245.3,41.6c2.4,0,4.3-0.8,4.8-3.1
	s-1-2.8-3.4-2.8h-1.1l-1.3,5.9L245.3,41.6z"/>
<path d="M267.6,28.6h23.6l-1.7,8.1h-11.8L277,40h11l-1.7,8.1h-10.9l-0.7,3.5h12.2l-1.7,8.1h-24L267.6,28.6z"/>
<path d="M299.2,37h-7.7l1.8-8.4H321l-1.8,8.4h-7.7l-4.8,22.7h-12.3L299.2,37z"/>
<path d="M323.3,28.6h18.4c6.7,0,10.2,2,9,7.9c-0.8,3.6-2.8,6.3-7.8,7.4V44c2.9,0.3,4.3,1.6,4.4,4c0.1,2.7-0.9,7.1-0.5,11.8h-12.1
	c-0.3-2.3,0.2-6.2,0.3-8.9c0.1-1.6-0.6-2.2-2.5-2.2h-1.4l-2.4,11.1h-12.1L323.3,28.6z M333.7,41.6c2.4,0,4.3-0.8,4.8-3.1
	s-1-2.8-3.4-2.8H334l-1.3,5.9L333.7,41.6z"/>
<path d="M364.9,28.6h16l3.4,31.1h-12.7l-0.1-5h-8.9l-2.3,5h-11.8L364.9,28.6z M371.2,47.2V35.5h-0.1L366,47.2H371.2z"/>
<path d="M416.4,48.2c-0.9,4.3-3.3,7.4-6.4,9.4s-6.9,2.9-10.8,2.9c-10.9,0-14.5-6.6-12.4-16.5c1.8-9.7,9-16.2,19.5-16.2
	c7.8,0,13.8,3.2,11.9,12.3h-11.3c0.6-3.5-0.6-4.2-2.1-4.2c-3.2,0-4.2,3.3-5.3,8.3c-1,4.7-1.5,8.3,1.6,8.3c1.6,0,2.9-0.9,3.7-4.2
	L416.4,48.2L416.4,48.2z"/>
<path d="M423.8,28.6h12.1L433.1,42h0.1l9.1-13.3h13l-11.4,14.6l6,16.4h-13.3l-4.2-14h-0.1l-3,14h-12.1L423.8,28.6z"/>
</svg>
